<svg width="21" height="21" viewBox="0 0 21 21" fill="none" xmlns="http://www.w3.org/2000/svg">
<path d="M20.7992 6.93303L20.7932 6.88084C20.7821 6.81551 20.7622 6.75244 20.7342 6.69376L17.793 1.42315C17.793 1.42315 17.4179 0.906372 17.3288 0.906372H4.79514L1.02577 6.51496L0.981206 6.56663L0.975172 6.59092C0.94333 6.64787 0.917179 6.70852 0.897185 6.7718L0.881866 6.82192C0.838435 6.98236 0.840543 7.15381 0.887901 7.31286L0.905541 7.36919C0.929215 7.43585 0.95846 7.49683 0.992812 7.5511L10.1057 20.4018L10.1243 20.4313C10.1711 20.4984 10.2282 20.5579 10.2979 20.6121L10.3508 20.6488C10.4028 20.685 10.4571 20.7139 10.536 20.746L10.5875 20.7651C10.6767 20.7904 10.7542 20.8023 10.8299 20.8023C10.9064 20.8023 10.9812 20.7909 11.0819 20.762L11.1437 20.7377C11.204 20.7139 11.2583 20.6845 11.3238 20.6395L11.3646 20.6111C11.4347 20.5558 11.4909 20.4959 11.522 20.4488L20.6465 7.58469C20.7272 7.46485 20.7798 7.32455 20.7997 7.17643L20.8066 7.10977L20.8103 7.05706L20.7992 6.93303ZM15.9064 6.59092L17.2053 3.97448L18.5032 6.59092H15.9064ZM15.1275 8.14125H18.2089L13.0729 15.3839L15.1275 8.14125ZM14.3653 5.80646L12.4894 2.97348H15.7713L14.3653 5.80646ZM8.35655 8.14125H13.3045L10.8299 16.8629L8.35655 8.14125ZM8.84722 6.59092L10.8299 3.59568L12.8125 6.59092H8.84722ZM7.45088 5.57184L6.59117 2.97348H9.17077L7.45088 5.57184ZM8.58772 15.3844L3.45126 8.14125H6.53314L8.58772 15.3844ZM5.10384 3.99257L5.96402 6.59092H3.38395L5.10384 3.99257Z" fill="white"/>
</svg>
